<?xml version="1.0" encoding="UTF-8"?>
<svg version="1.1" xmlns="http://www.w3.org/2000/svg" width="1536" height="1024">
<path d="M0 0 C506.88 0 1013.76 0 1536 0 C1536 337.92 1536 675.84 1536 1024 C1029.12 1024 522.24 1024 0 1024 C0 686.08 0 348.16 0 0 Z " fill="#FDFDFD" transform="translate(0,0)"/>
<path d="M0 0 C2.15295403 -0.00217886 4.30538905 -0.02032457 6.45825195 -0.03930664 C7.8378075 -0.04224244 9.21736547 -0.04422599 10.59692383 -0.04516602 C11.84513916 -0.0492749 13.09335449 -0.05338379 14.37939453 -0.05761719 C17.87616694 0.18652628 20.58502382 0.98337724 23.85864258 2.18530273 C26.29988495 2.31596973 26.29988495 2.31596973 28.67114258 2.12280273 C33.07024121 2.03101826 36.34019077 2.78017776 40.42895508 4.32983398 C44.22383745 5.66597424 48.13819635 6.46964802 52.06176758 7.34155273 C55.03417014 8.23825518 57.23781961 9.54195283 59.85864258 11.18530273 C61.22068781 11.73913046 62.59689251 12.25911406 63.98364258 12.74780273 C96.39539589 25.4706253 121.753875 48.542199 140.85864258 77.18530273 C141.60114258 78.27584961 142.34364258 79.36639648 143.10864258 80.48999023 C151.4601053 93.31079043 156.56584287 107.35269413 160.73364258 121.99780273 C161.16302124 123.49875488 161.16302124 123.49875488 161.60107422 125.0300293 C164.95505961 137.36527585 166.23002609 149.54816796 166.17114258 162.31030273 C166.16695312 163.56858887 166.16276367 164.826875 166.15844727 166.12329102 C165.96721703 182.07067176 163.348806 196.92978847 158.85864258 212.18530273 C158.64723633 213.03737305 158.43583008 213.88944336 158.21801758 214.76733398 C156.2397222 222.41420651 152.50686092 229.24244434 148.87524414 236.2097168 C147.83697739 238.22740521 146.8418856 240.26315767 145.84692383 242.30249023 C141.57600693 250.86519341 135.71396128 258.64436198 129.85864258 266.18530273 C130.42067383 266.43022461 130.98270508 266.67514648 131.56176758 266.92749023 C134.27730111 268.41456812 136.32255696 270.22593055 138.60864258 272.31030273 C139.40786133 273.03475586 140.20708008 273.75920898 141.03051758 274.50561523 C141.63379883 275.05991211 142.23708008 275.61420898 142.85864258 276.18530273 C141.52869875 279.13795385 140.08084941 281.2088049 137.78588867 283.48510742 C137.16539642 284.10544861 136.54490417 284.72578979 135.90560913 285.3649292 C135.23784454 286.02237122 134.57007996 286.67981323 133.88208008 287.35717773 C133.19683258 288.03959534 132.51158508 288.72201294 131.80557251 289.42510986 C129.61958412 291.59991871 127.42673829 293.76766346 125.23364258 295.93530273 C123.74881003 297.41010263 122.26442952 298.88535779 120.78051758 300.36108398 C117.14511348 303.97445722 113.50354434 307.58151127 109.85864258 311.18530273 C105.79299526 309.83008696 104.72356408 307.14495102 102.67114258 303.62280273 C102.11910156 302.69951172 102.11910156 302.69951172 101.5559082 301.75756836 C100.64896358 300.23814165 99.7527609 298.7123124 98.85864258 297.18530273 C94.89422519 298.62032036 91.58550091 300.52948389 88.04614258 302.81030273 C74.76460937 311.16127835 59.79184383 319.25674393 44.17504883 321.72827148 C41.77655988 322.1391702 41.77655988 322.1391702 39.26489258 323.13452148 C2.99241926 334.32408034 -39.76650905 326.40787041 -72.70385742 309.43530273 C-81.04471018 305.01324496 -88.73354712 300.02993573 -96.14135742 294.18530273 C-96.67921875 293.76168457 -97.21708008 293.33806641 -97.77124023 292.90161133 C-133.70363386 264.24407244 -152.80214598 227.67138815 -162.14135742 183.18530273 C-162.32384033 182.38664795 -162.50632324 181.58799316 -162.69433594 180.76513672 C-166.08572786 161.19286012 -162.72193011 139.26338799 -158.14135742 120.18530273 C-157.90416992 119.18370117 -157.66698242 118.18209961 -157.42260742 117.15014648 C-156.15602956 112.14578721 -154.60586442 107.72279333 -152.15698242 103.18139648 C-151.07657284 101.05797612 -150.2726267 98.92203155 -149.45385742 96.68530273 C-142.44142476 78.89500663 -130.78935754 63.29300893 -117.57446289 49.6652832 C-116.24200265 48.28923994 -114.92723801 46.89612184 -113.61401367 45.50170898 C-92.60865045 23.67928139 -56.2509762 1.75103091 -25.03588867 1.12280273 C-24.01881836 1.14342773 -23.00174805 1.16405273 -21.95385742 1.18530273 C-14.63786798 1.33254277 -7.44871627 -0.00084539 0 0 Z " fill="#FCFBFA" transform="translate(800.141357421875,296.814697265625)"/>
<path d="M0 0 C1.76605843 -0.00856522 1.76605843 -0.00856522 3.5677948 -0.01730347 C4.85099106 -0.01842133 6.13418732 -0.01953918 7.45626831 -0.02069092 C8.82830437 -0.02532297 10.20033914 -0.03034815 11.57237244 -0.03573608 C15.29377016 -0.04882768 19.01514987 -0.05529908 22.73656702 -0.05974674 C25.06556977 -0.06268363 27.39456767 -0.06678966 29.72356796 -0.07125092 C37.02194416 -0.08491935 44.32030918 -0.09458834 51.61869729 -0.09845281 C60.02180336 -0.10292751 68.42474628 -0.12045073 76.82780278 -0.1494534 C83.33672988 -0.17113249 89.84561129 -0.18116045 96.35457408 -0.18249393 C100.23545101 -0.18353781 104.11617443 -0.18935579 107.99701309 -0.20731354 C111.65293008 -0.22390162 115.30857998 -0.22589828 118.96452141 -0.21717453 C120.92927381 -0.21604801 122.89401778 -0.22968344 124.85871887 -0.243927 C136.92064649 -0.18768049 149.31122995 2.17885167 158.57785034 10.51446533 C166.94587612 19.33825439 171.54592295 29.85523952 176.36984253 40.82794189 C177.41353413 43.16946448 178.46080374 45.50935702 179.50894165 47.84889221 C180.15351954 49.29104146 180.79493211 50.73461182 181.43240356 52.17991638 C182.96469587 55.64136859 184.53759142 59.08121662 186.18136597 62.49127197 C186.4895929 63.13284744 186.79781982 63.77442291 187.11538696 64.43544006 C189.01873904 67.66626369 191.83357226 69.49730676 195.11984253 71.14044189 C197.99999563 71.24765106 200.8569813 71.29461669 203.73776245 71.29815674 C204.63079575 71.30323746 205.52382904 71.30831818 206.44392395 71.31355286 C208.38968606 71.3242742 210.33546064 71.33288742 212.28124046 71.33967209 C215.37303944 71.35146609 218.46469904 71.37092653 221.55644226 71.39279175 C230.34990703 71.45434656 239.14336188 71.50819669 247.9369812 71.54180908 C253.31460145 71.56291746 258.69197455 71.59836178 264.06945229 71.64256668 C266.10847344 71.65661519 268.14753841 71.66542356 270.18660545 71.66862106 C292.50781641 71.70728434 312.3812529 74.32668842 330.11984253 89.14044189 C330.74761597 89.62899658 331.3753894 90.11755127 332.02218628 90.62091064 C335.59188872 93.42762325 338.3190372 96.59824692 341.11984253 100.14044189 C339.62484664 104.44098203 336.46711992 106.21055673 332.74484253 108.45294189 C332.16734253 108.82483643 331.58984253 109.19673096 330.99484253 109.57989502 C326.75712867 112.17767167 326.75712867 112.17767167 323.84640503 112.00762939 C321.09091511 110.6236503 319.2665866 108.3359756 317.11984253 106.14044189 C309.49905579 99.22729964 298.50645542 94.02816079 288.0683136 94.00914001 C287.27095291 94.00513184 286.47359222 94.00112366 285.65206909 93.99699402 C284.35305664 93.99778709 284.35305664 93.99778709 283.02780151 93.99859619 C282.10854385 93.99512177 281.18928619 93.99164734 280.24217224 93.98806763 C278.2462315 93.98071899 276.25028263 93.97536885 274.25433159 93.97177696 C271.08785811 93.96459698 267.92153829 93.948917 264.75511169 93.93043518 C255.75195473 93.87805088 246.74888091 93.83003738 237.74557495 93.81451416 C232.23594073 93.80439256 226.72669215 93.7749593 221.21721077 93.73319435 C219.12464385 93.72093589 217.03202233 93.7157536 214.9394207 93.71799278 C197.50897494 93.73204946 184.38459027 91.63020266 171.49484253 78.82794189 C167.1380968 73.55291252 164.80437745 67.12511431 162.16281128 60.88262939 C159.42319155 54.425799 156.22774537 48.21418411 153.03829956 41.97149658 C152.15009628 40.20075639 151.3040582 38.40905963 150.45968628 36.61700439 C149.70365112 35.01985596 149.70365112 35.01985596 148.93234253 33.39044189 C148.50566284 32.46747314 148.07898315 31.54450439 147.63937378 30.59356689 C144.83151359 26.06056895 141.08742606 23.80231405 136.11984253 22.14044189 C133.26369827 21.83176971 133.26369827 21.83176971 130.18826294 21.85955811 C128.99958618 21.84813782 127.81090942 21.83671753 126.58621216 21.82495117 C125.29052307 21.82271545 123.99483398 21.82047974 122.65988159 21.81817627 C121.27474442 21.80891247 119.88961232 21.79886214 118.50448608 21.78808594 C114.74810118 21.7619046 110.99178766 21.7489611 107.23532581 21.74006462 C104.88556022 21.73419213 102.5358139 21.72598044 100.18605804 21.71705627 C92.82575012 21.68972342 85.46548653 21.67038202 78.10513139 21.66265249 C69.62425492 21.65369593 61.14402393 21.61861612 52.66334367 21.5606513 C46.09753814 21.51734075 39.53191372 21.49723987 32.96596694 21.49457026 C29.04919438 21.49247951 25.13302925 21.48078165 21.21640778 21.44493103 C17.52906728 21.41183433 13.84278636 21.40772115 10.15534973 21.42520905 C8.16868344 21.42747012 6.18205127 21.40013676 4.19558716 21.3717041 C-2.827158 21.43689106 -7.46698139 22.24426274 -13.1952858 26.41965485 C-15.74273037 29.02140173 -16.7496747 31.80922263 -17.88406372 35.22247314 C-19.23067688 39.16725757 -21.03082601 42.85165904 -22.822052 46.61114502 C-24.79043193 50.76741154 -26.68488693 54.94841233 -28.53250122 59.15997314 C-29.00228394 60.21813232 -29.47206665 61.2762915 -29.95608521 62.36651611 C-30.88479743 64.46085532 -31.80281701 66.55997864 -32.70852661 68.66436768 C-37.29168775 78.92276145 -43.38430525 86.77191694 -54.03997231 90.99678802 C-60.86962989 93.21782381 -67.15263518 93.56465063 -74.29959106 93.52520752 C-76.10166267 93.53326668 -76.10166267 93.53326668 -77.94013977 93.54148865 C-81.20687406 93.55375662 -84.4733123 93.55321499 -87.74005461 93.5477581 C-91.17910895 93.54595939 -94.61805868 93.56344227 -98.05706787 93.57952881 C-106.78974982 93.6172274 -115.52240665 93.63015597 -124.25515747 93.64044189 C-133.67973682 93.6515491 -143.10418749 93.66710988 -152.52867949 93.71115446 C-155.94170199 93.72640003 -159.35450229 93.73546403 -162.76755905 93.72975159 C-166.57917559 93.72520332 -170.39036199 93.73867988 -174.20193481 93.75567627 C-175.31192337 93.74952805 -176.42191193 93.74337982 -177.5655365 93.73704529 C-194.09997929 93.86574597 -206.97941382 99.59755645 -218.82546997 111.01544189 C-231.84237337 124.99029922 -232.33147146 141.93649215 -232.31594849 159.98516846 C-232.32493837 162.07918329 -232.33514942 164.17319318 -232.34648132 166.26719666 C-232.37285936 171.92649767 -232.3800096 177.5856624 -232.38192868 183.24501896 C-232.38406814 186.78838816 -232.39048608 190.33172323 -232.39842033 193.87508392 C-232.42613283 206.25831789 -232.43843091 218.64145529 -232.43606567 231.02471924 C-232.4342642 242.53326193 -232.46591454 254.04138238 -232.51329666 265.54981828 C-232.55263269 275.46022707 -232.5686128 285.37049846 -232.56669945 295.28098464 C-232.56593775 301.18694803 -232.57431049 307.09253571 -232.6062336 312.99842072 C-232.63546328 318.55715792 -232.63538876 324.11516496 -232.6136837 329.67392921 C-232.6105692 331.70227702 -232.61749664 333.73067181 -232.63576508 335.75893974 C-232.78959147 354.03577393 -229.0776591 370.8117745 -215.94265747 384.45294189 C-214.60643103 385.70158795 -213.25346146 386.93269432 -211.88015747 388.14044189 C-211.37226685 388.60063721 -210.86437622 389.06083252 -210.34109497 389.53497314 C-201.36689933 396.78336193 -188.65896635 400.26998115 -177.35015869 400.26069641 C-175.40673836 400.26275841 -175.40673836 400.26275841 -173.42405701 400.26486206 C-172.00073219 400.26132359 -170.5774076 400.25768879 -169.15408325 400.25396729 C-167.64582827 400.25368502 -166.13757314 400.25384392 -164.62931824 400.25440979 C-160.54508095 400.25469623 -156.46087315 400.24882423 -152.3766427 400.24183583 C-148.10453091 400.23557682 -143.83241841 400.23499648 -139.56030273 400.23381042 C-131.47503071 400.23070462 -123.38977224 400.22250135 -115.30450618 400.21246094 C-106.09777261 400.20127648 -96.89103838 400.19578347 -87.68429971 400.1907655 C-68.74957795 400.18031812 -49.8148688 400.16273321 -30.88015747 400.14044189 C-31.36764465 399.68390228 -31.85513184 399.22736267 -32.35739136 398.75698853 C-34.59010504 396.66469313 -36.82107966 394.57055219 -39.05203247 392.47637939 C-39.81886353 391.75829102 -40.58569458 391.04020264 -41.37576294 390.300354 C-57.57189744 375.08712133 -70.11825567 357.98269184 -79.94265747 338.07794189 C-80.26814575 337.42245361 -80.59363403 336.76696533 -80.9289856 336.09161377 C-81.58498735 334.77051717 -82.23896987 333.44841593 -82.89089966 332.12530518 C-83.55665809 330.78951642 -84.23466946 329.45977224 -84.92410278 328.13604736 C-87.24179798 323.65437054 -89.00865038 319.20486274 -90.50515747 314.39044189 C-91.93307392 309.66823972 -91.93307392 309.66823972 -93.93484497 305.17559814 C-95.39169462 302.03915737 -95.8216162 298.71452579 -96.38015747 295.32794189 C-96.50761353 294.5847168 -96.63506958 293.8414917 -96.76638794 293.07574463 C-97.83116417 286.74415278 -98.67998338 280.39275912 -99.45046997 274.01934814 C-99.71821375 271.20576265 -99.71821375 271.20576265 -100.88015747 269.14044189 C-102.33006254 249.34573792 -100.70251669 229.15490332 -94.88015747 210.14044189 C-94.22015747 210.14044189 -93.56015747 210.14044189 -92.88015747 210.14044189 C-92.81828247 209.12981689 -92.75640747 208.11919189 -92.69265747 207.07794189 C-90.44802769 189.81855887 -80.74154256 173.76172729 -71.88015747 159.14044189 C-71.55015747 159.80044189 -71.22015747 160.46044189 -70.88015747 161.14044189 C-71.89833478 163.36845343 -72.96829925 165.48914669 -74.13015747 167.64044189 C-77.10393224 173.32895439 -79.36440672 178.87533879 -80.88015747 185.14044189 C-81.54015747 185.14044189 -82.20015747 185.14044189 -82.88015747 185.14044189 C-83.00132935 186.02087158 -83.12250122 186.90130127 -83.24734497 187.80841064 C-83.49871216 189.55057861 -83.49871216 189.55057861 -83.75515747 191.32794189 C-83.99879028 193.05077393 -83.99879028 193.05077393 -84.24734497 194.80841064 C-84.88015747 198.14044189 -84.88015747 198.14044189 -85.85134888 200.34625244 C-87.16239862 203.90699385 -87.58539039 207.43074421 -87.97390747 211.17950439 C-88.05717285 211.96556061 -88.14043823 212.75161682 -88.22622681 213.56149292 C-89.1416309 222.86806305 -89.36754295 232.16861668 -89.38015747 241.51544189 C-89.38150696 242.42875275 -89.38285645 243.3420636 -89.38424683 244.28305054 C-89.29382487 283.11843538 -76.09400446 320.02910056 -52.88015747 351.14044189 C-52.1092981 352.20778564 -51.33843872 353.27512939 -50.54421997 354.37481689 C-38.04613201 371.28573103 -22.59914865 385.85164052 -4.88015747 397.14044189 C-3.67867065 397.90711182 -3.67867065 397.90711182 -2.45291138 398.68927002 C38.98921891 424.65458043 89.56570256 434.52387642 137.5451355 423.76544189 C143.01087373 422.43865545 148.40483593 420.9202315 153.75656128 419.19122314 C156.54895891 418.31880158 159.24224949 417.64113208 162.11984253 417.14044189 C158.36805882 421.40523088 153.13510092 422.95039579 147.99484253 425.07794189 C146.91766968 425.52524658 145.84049683 425.97255127 144.73068237 426.43341064 C135.97194493 429.97703192 127.38408633 432.402118 118.11984253 434.14044189 C117.2407019 434.33895752 116.36156128 434.53747314 115.45578003 434.74200439 C101.93147037 437.77253532 88.00134961 438.57871544 74.18234253 438.57794189 C73.43369934 438.57967407 72.68505615 438.58140625 71.91372681 438.58319092 C57.58053471 438.56877541 44.02179549 436.72769928 30.11984253 433.14044189 C29.40699097 432.95932861 28.6941394 432.77821533 27.95968628 432.59161377 C19.32603254 430.33126294 10.96367798 426.95960999 2.93075275 423.08438683 C-0.58514797 421.90369573 -3.84707746 421.86468574 -7.51097107 421.8888855 C-8.27166198 421.88591536 -9.0323529 421.88294522 -9.81609505 421.87988508 C-12.36137055 421.87225576 -14.90641454 421.87873494 -17.45169067 421.8850708 C-19.27866268 421.8823202 -21.10563349 421.87863988 -22.93260193 421.87409973 C-26.8672834 421.86598834 -30.80190804 421.86381924 -34.73659706 421.86604691 C-40.97095488 421.86888358 -47.20519966 421.85451204 -53.43952942 421.83706665 C-71.16817508 421.79008209 -88.89681365 421.7661213 -106.6255188 421.75958252 C-116.41703911 421.75581874 -126.20843196 421.7376795 -135.99989766 421.70448816 C-142.1832572 421.68438132 -148.36628552 421.68185192 -154.54966414 421.69276834 C-158.41933195 421.69539623 -162.28881152 421.68126985 -166.1584301 421.6626873 C-167.9368076 421.65741433 -169.71522086 421.65877692 -171.49358368 421.6677227 C-193.66743478 421.77015602 -212.12897338 416.4002646 -228.88015747 401.14044189 C-229.95716919 400.20264893 -229.95716919 400.20264893 -231.05593872 399.24591064 C-237.01893699 393.74605788 -240.91457235 387.16105933 -244.88015747 380.14044189 C-245.3777356 379.29352783 -245.87531372 378.44661377 -246.38796997 377.57403564 C-253.84535221 364.02124817 -253.31959991 349.09763888 -253.28421021 334.10308838 C-253.28992239 331.905392 -253.29688991 329.70769858 -253.30500793 327.51000977 C-253.32285758 321.57829367 -253.32178679 315.64672615 -253.31606555 309.71499133 C-253.31296276 304.74981766 -253.31907802 299.78467207 -253.3251043 294.81950241 C-253.33991944 282.43407662 -253.33635873 270.04872315 -253.32424099 257.66329867 C-253.31430507 246.93523757 -253.32726285 236.20734885 -253.35117518 225.47931432 C-253.37561928 214.42839774 -253.38476266 203.3775652 -253.37852246 192.32662255 C-253.37516048 186.13639471 -253.37751794 179.94630937 -253.39477348 173.75610161 C-253.41029262 167.93564045 -253.40623182 162.11550763 -253.38746834 156.2950592 C-253.38379668 154.16709516 -253.38684906 152.03910651 -253.39735413 149.91116524 C-253.50097561 127.17476589 -247.9152215 109.33682849 -231.50125122 92.73419189 C-211.16437472 73.63853321 -188.00796125 71.68863799 -161.41709518 71.73312569 C-157.96991878 71.73493007 -154.52284557 71.71742462 -151.07571411 71.70135498 C-141.60092999 71.66056844 -132.12615564 71.64894935 -122.65129852 71.63782501 C-113.93560156 71.62729877 -105.2200379 71.61050714 -96.50442314 71.56972933 C-93.08159062 71.55442378 -89.65898153 71.54544999 -86.2361145 71.5511322 C-82.42849877 71.5556463 -78.62132228 71.54228958 -74.81375122 71.52520752 C-73.12583717 71.53442986 -73.12583717 71.53442986 -71.40382385 71.5438385 C-65.82383662 71.49981904 -61.66841914 71.35664186 -56.88015747 68.14044189 C-53.84097768 65.00299763 -52.50715332 61.08720276 -50.94265747 57.07794189 C-47.70358256 49.04878739 -44.33366307 41.07967773 -40.88015747 33.14044189 C-40.39426147 31.99567383 -39.90836548 30.85090576 -39.40774536 29.67144775 C-33.89667946 17.09453598 -26.79701872 8.03386704 -14.06765747 2.26544189 C-9.29391767 0.58059255 -5.05449122 0.01472779 0 0 Z " fill="#928B6E" transform="translate(704.8801574707031,218.85955810546875)"/>
<path d="M0 0 C2.15295403 -0.00217886 4.30538905 -0.02032457 6.45825195 -0.03930664 C7.8378075 -0.04224244 9.21736547 -0.04422599 10.59692383 -0.04516602 C11.84513916 -0.0492749 13.09335449 -0.05338379 14.37939453 -0.05761719 C17.87616694 0.18652628 20.58502382 0.98337724 23.85864258 2.18530273 C26.29988495 2.31596973 26.29988495 2.31596973 28.67114258 2.12280273 C33.07024121 2.03101826 36.34019077 2.78017776 40.42895508 4.32983398 C44.22383745 5.66597424 48.13819635 6.46964802 52.06176758 7.34155273 C55.03417014 8.23825518 57.23781961 9.54195283 59.85864258 11.18530273 C61.22068781 11.73913046 62.59689251 12.25911406 63.98364258 12.74780273 C96.39539589 25.4706253 121.753875 48.542199 140.85864258 77.18530273 C141.60114258 78.27584961 142.34364258 79.36639648 143.10864258 80.48999023 C151.4601053 93.31079043 156.56584287 107.35269413 160.73364258 121.99780273 C161.16302124 123.49875488 161.16302124 123.49875488 161.60107422 125.0300293 C164.95505961 137.36527585 166.23002609 149.54816796 166.17114258 162.31030273 C166.16695312 163.56858887 166.16276367 164.826875 166.15844727 166.12329102 C165.96721703 182.07067176 163.348806 196.92978847 158.85864258 212.18530273 C158.64723633 213.03737305 158.43583008 213.88944336 158.21801758 214.76733398 C156.2397222 222.41420651 152.50686092 229.24244434 148.87524414 236.2097168 C147.83697739 238.22740521 146.8418856 240.26315767 145.84692383 242.30249023 C141.57600693 250.86519341 135.71396128 258.64436198 129.85864258 266.18530273 C130.42067383 266.43022461 130.98270508 266.67514648 131.56176758 266.92749023 C134.27730111 268.41456812 136.32255696 270.22593055 138.60864258 272.31030273 C139.40786133 273.03475586 140.20708008 273.75920898 141.03051758 274.50561523 C141.63379883 275.05991211 142.23708008 275.61420898 142.85864258 276.18530273 C141.52869875 279.13795385 140.08084941 281.2088049 137.78588867 283.48510742 C137.16539642 284.10544861 136.54490417 284.72578979 135.90560913 285.3649292 C135.23784454 286.02237122 134.57007996 286.67981323 133.88208008 287.35717773 C133.19683258 288.03959534 132.51158508 288.72201294 131.80557251 289.42510986 C129.61958412 291.59991871 127.42673829 293.76766346 125.23364258 295.93530273 C123.74881003 297.41010263 122.26442952 298.88535779 120.78051758 300.36108398 C117.14511348 303.97445722 113.50354434 307.58151127 109.85864258 311.18530273 C105.79299526 309.83008696 104.72356408 307.14495102 102.67114258 303.62280273 C102.11910156 302.69951172 102.11910156 302.69951172 101.5559082 301.75756836 C100.64896358 300.23814165 99.7527609 298.7123124 98.85864258 297.18530273 C94.89422519 298.62032036 91.58550091 300.52948389 88.04614258 302.81030273 C74.76460937 311.16127835 59.79184383 319.25674393 44.17504883 321.72827148 C41.77655988 322.1391702 41.77655988 322.1391702 39.26489258 323.13452148 C2.99241926 334.32408034 -39.76650905 326.40787041 -72.70385742 309.43530273 C-81.04471018 305.01324496 -88.73354712 300.02993573 -96.14135742 294.18530273 C-96.67921875 293.76168457 -97.21708008 293.33806641 -97.77124023 292.90161133 C-133.70363386 264.24407244 -152.80214598 227.67138815 -162.14135742 183.18530273 C-162.32384033 182.38664795 -162.50632324 181.58799316 -162.69433594 180.76513672 C-166.08572786 161.19286012 -162.72193011 139.26338799 -158.14135742 120.18530273 C-157.90416992 119.18370117 -157.66698242 118.18209961 -157.42260742 117.15014648 C-156.15602956 112.14578721 -154.60586442 107.72279333 -152.15698242 103.18139648 C-151.07657284 101.05797612 -150.2726267 98.92203155 -149.45385742 96.68530273 C-142.44142476 78.89500663 -130.78935754 63.29300893 -117.57446289 49.6652832 C-116.24200265 48.28923994 -114.92723801 46.89612184 -113.61401367 45.50170898 C-92.60865045 23.67928139 -56.2509762 1.75103091 -25.03588867 1.12280273 C-24.01881836 1.14342773 -23.00174805 1.16405273 -21.95385742 1.18530273 C-14.63786798 1.33254277 -7.44871627 -0.00084539 0 0 Z M-57.14135742 37.18530273 C-57.14135742 37.84530273 -57.14135742 38.50530273 -57.14135742 39.18530273 C-58.15198242 39.43280273 -59.16260742 39.68030273 -60.20385742 39.93530273 C-64.21361571 41.09242737 -67.63189303 42.95730252 -71.14135742 45.18530273 C-71.86581055 45.64163086 -72.59026367 46.09795898 -73.33666992 46.56811523 C-78.28670854 49.77305549 -82.75103367 53.25972046 -87.14135742 57.18530273 C-88.06174805 57.9684082 -88.06174805 57.9684082 -89.00073242 58.76733398 C-101.31713569 69.28554237 -114.88226669 82.40803053 -120.14135742 98.18530273 C-120.59639648 98.5887793 -121.05143555 98.99225586 -121.52026367 99.40795898 C-123.94922365 102.07103559 -124.89303002 105.27911995 -126.07885742 108.62280273 C-126.33900635 109.34290527 -126.59915527 110.06300781 -126.8671875 110.80493164 C-127.39028081 112.25989102 -127.90946156 113.71626349 -128.42456055 115.17407227 C-129.03326362 116.88200684 -129.67025111 118.57981909 -130.31323242 120.27514648 C-138.51330105 142.76225775 -139.52951519 171.79294194 -132.95385742 194.81030273 C-132.62393799 195.97480957 -132.62393799 195.97480957 -132.28735352 197.1628418 C-125.60812483 220.06974101 -114.63499368 239.97703752 -98.14135742 257.18530273 C-97.40788086 257.98194336 -96.6744043 258.77858398 -95.91870117 259.59936523 C-79.35984046 277.01519537 -58.82311318 287.92520228 -36.14135742 295.18530273 C-35.47749023 295.41121094 -34.81362305 295.63711914 -34.12963867 295.86987305 C-12.73368815 302.93314069 16.44455578 301.67322297 37.85864258 295.18530273 C38.94749756 294.86384277 38.94749756 294.86384277 40.05834961 294.53588867 C65.32860392 286.86605668 90.44080297 272.20013743 106.85864258 251.18530273 C107.62305664 250.25717773 108.3874707 249.32905273 109.17504883 248.37280273 C115.34719692 240.75869773 120.34157857 232.73713814 124.87866211 224.05639648 C125.74576254 222.40082654 126.64190073 220.76053617 127.54223633 219.12280273 C131.17317469 212.03068417 133.21370546 204.76076984 135.17114258 197.06030273 C135.55338989 195.55790039 135.55338989 195.55790039 135.94335938 194.02514648 C144.44932394 158.71364815 137.40082635 122.00306384 118.85864258 91.18530273 C116.3983041 87.31905656 113.75816686 83.73204225 110.85864258 80.18530273 C110.41262695 79.63535645 109.96661133 79.08541016 109.50708008 78.51879883 C86.34667736 50.1333721 53.35871346 30.53404177 16.51733398 26.76464844 C13.96573326 26.54332289 11.41402455 26.35759116 8.85864258 26.18530273 C7.88507813 26.11585449 6.91151367 26.04640625 5.90844727 25.97485352 C-16.10318621 24.62108639 -36.70403904 29.0360827 -57.14135742 37.18530273 Z " fill="#346187" transform="translate(800.141357421875,296.814697265625)"/>
<path d="M0 0 C4.24411077 1.66366977 7.15482363 4.80818079 10.3449707 7.94335938 C10.97138962 8.55181702 11.59780853 9.16027466 12.24320984 9.78717041 C14.31037931 11.79968668 16.36915944 13.82045827 18.42578125 15.84375 C19.1294451 16.53551834 19.83310894 17.22728668 20.55809593 17.9400177 C24.27897819 21.60165006 27.99213045 25.27095016 31.70043945 28.9453125 C34.76929118 31.98297986 37.85312884 35.00408489 40.95141602 38.01171875 C44.69581851 41.64664241 48.41252611 45.30781152 52.11098289 48.98945618 C53.52308551 50.38628836 54.94455973 51.7737129 56.37545204 53.15129089 C58.37771839 55.08298916 60.34242581 57.04661988 62.30200195 59.02148438 C62.89776031 59.58083679 63.49351868 60.14018921 64.10733032 60.7164917 C66.58422666 63.27734944 67.92571489 64.8977963 68.1703701 68.52786255 C67.44848218 76.8441215 63.86619093 83.74479177 60 91 C59.49654053 91.94697754 59.49654053 91.94697754 58.98291016 92.91308594 C44.60183731 119.43011411 20.24010685 140.51499005 -8.7265625 149.53515625 C-13.12328724 150.81804052 -17.53812478 151.96802886 -22 153 C-23.09779785 153.28037109 -23.09779785 153.28037109 -24.21777344 153.56640625 C-31.24125719 155.20803279 -38.14789891 155.30577845 -45.33984375 155.26074219 C-47.36489045 155.25005336 -49.38904315 155.26067684 -51.4140625 155.2734375 C-63.2014038 155.25032507 -73.8472761 153.82354966 -84.9375 149.8125 C-85.79939941 149.50352783 -86.66129883 149.19455566 -87.54931641 148.8762207 C-116.04916122 138.37333232 -136.20482151 118.161089 -151.8125 92.6640625 C-153.1558648 89.65032963 -153.09799675 88.99568847 -152 86 C-150.82006836 84.46362305 -150.82006836 84.46362305 -149.33984375 83.01171875 C-148.79779297 82.47409912 -148.25574219 81.93647949 -147.69726562 81.38256836 C-147.11654297 80.8231958 -146.53582031 80.26382324 -145.9375 79.6875 C-145.04514648 78.81266968 -145.04514648 78.81266968 -144.13476562 77.92016602 C-140.56830189 74.4463566 -136.93304039 71.08220873 -133.140625 67.85546875 C-130.28632296 65.38139308 -127.52107925 62.81653277 -124.75 60.25 C-124.19836182 59.74170654 -123.64672363 59.23341309 -123.07836914 58.7097168 C-120.24021105 56.091303 -117.42329715 53.4545396 -114.63671875 50.78125 C-114.09885742 50.27174805 -113.56099609 49.76224609 -113.00683594 49.23730469 C-111.51788264 47.82618093 -110.03796806 46.40553784 -108.55859375 44.984375 C-106 43 -106 43 -102 43 C-99.44140625 44.8359375 -99.44140625 44.8359375 -96.5625 47.375 C-95.49935498 48.2965359 -94.43417961 49.21573366 -93.3671875 50.1328125 C-92.81643555 50.60750977 -92.26568359 51.08220703 -91.69824219 51.57128906 C-87.95210488 54.72286979 -84.01062435 57.62822293 -80.10546875 60.578125 C-76.6400861 63.28068757 -73.31146075 66.112549 -70 69 C-70.556875 70.17433594 -71.11375 71.34867187 -71.6875 72.55859375 C-76.80964342 83.36397939 -81.91434526 94.17739413 -87 105 C-86.2265625 104.14277344 -85.453125 103.28554688 -84.65625 102.40234375 C-79.59927389 96.83665847 -74.60272756 91.40000167 -68.82421875 86.56640625 C-65.70809509 83.89067694 -62.8620414 80.94253632 -60 78 C-55.96765014 79.38251995 -53.23267706 81.24039763 -50 84 C-44.75574333 88.39863805 -39.38685466 92.58693274 -33.9453125 96.73828125 C-31.2693101 98.79319556 -28.62648122 100.88233894 -26 103 C-32.84939375 89.52883586 -40.6168924 76.5746614 -49 64 C-48.74021046 59.70294062 -47.07137239 57.45253578 -44.3125 54.25 C-43.50425781 53.29609375 -42.69601562 52.3421875 -41.86328125 51.359375 C-41.18386475 50.56563477 -41.18386475 50.56563477 -40.49072266 49.75585938 C-37.61818776 46.37242161 -34.81611084 42.93039747 -32 39.5 C-30.78929597 38.02975563 -29.57836239 36.55970025 -28.3671875 35.08984375 C-21.51872871 26.77331121 -14.71576157 18.42427234 -8 10 C-6.50031372 8.12474906 -5.00032154 6.24974273 -3.5 4.375 C-2.8296875 3.53710938 -2.159375 2.69921875 -1.46875 1.8359375 C-0.74171875 0.92714844 -0.74171875 0.92714844 0 0 Z " fill="#F49026" transform="translate(848,423)"/>
<path d="M0 0 C0.77472656 0.30502441 1.54945313 0.61004883 2.34765625 0.92431641 C17.39679614 6.88385018 30.36522237 14.63268852 42 26 C42.886875 26.86625 43.77375 27.7325 44.6875 28.625 C45.450625 29.40875 46.21375 30.1925 47 31 C47.52980469 31.49628906 48.05960938 31.99257813 48.60546875 32.50390625 C68.99528124 51.90348502 78.40682106 80.79362597 79.19140625 108.328125 C79.21808736 110.13532525 79.23771287 111.94264457 79.25 113.75 C79.25926514 114.60787109 79.26853027 115.46574219 79.27807617 116.34960938 C79.27396729 117.15720703 79.2698584 117.96480469 79.265625 118.796875 C79.26336914 119.51198242 79.26111328 120.22708984 79.25878906 120.96386719 C78.96023659 123.31285549 78.15971175 124.9512143 77 127 C69.2376376 119.01700197 62.94398412 110.16764545 56.51318359 101.11230469 C54.49089955 98.28932929 52.40910975 95.51826704 50.3125 92.75 C44.41746412 84.93639789 38.75746641 76.95582078 33.15625 68.9296875 C27.38348174 60.67317518 21.47288469 52.56502298 15.27612305 44.61987305 C12.61054393 41.18734075 10.12998924 37.80302577 8 34 C3.77158426 35.40947191 2.60669779 38.46696295 0.4375 42.125 C-0.46026948 43.60146015 -1.36005713 45.07669478 -2.26171875 46.55078125 C-2.71853027 47.29924316 -3.1753418 48.04770508 -3.64599609 48.81884766 C-5.64387235 52.037208 -7.75228167 55.17564626 -9.875 58.3125 C-13.55296098 63.77574597 -17.11958025 69.2995241 -20.625 74.875 C-27.38215992 85.62010078 -34.19217457 96.33029312 -41.06787109 107 C-42.32626167 108.95389227 -43.58193648 110.90953713 -44.83447266 112.8671875 C-46.4831139 115.43941792 -48.14530204 118.00227151 -49.8125 120.5625 C-50.29783203 121.3244165 -50.78316406 122.08633301 -51.28320312 122.87133789 C-52.44326825 124.63536089 -53.71179727 126.32725915 -55 128 C-58 128 -58 128 -59.98046875 126.1640625 C-60.70878906 125.32617188 -61.43710937 124.48828125 -62.1875 123.625 C-63.38826172 122.24634766 -63.38826172 122.24634766 -64.61328125 120.83984375 C-67.41658324 117.50432731 -70.14240388 114.11671734 -72.83984375 110.6953125 C-75.77113808 107.03782048 -78.8083274 103.47519094 -81.84741211 99.90722656 C-85.64549227 95.44076363 -89.352062 90.90818462 -93.02734375 86.33984375 C-94.91623073 84.09936196 -96.89615186 82.0379558 -99 80 C-109.56003394 93.35346977 -119.96145874 106.8115505 -130 120.5625 C-135.99506607 128.77012094 -142.29293683 136.68725807 -148.80175781 144.4921875 C-149.94800365 145.93457021 -150.97803396 147.46705094 -152 149 C-152.66 149 -153.32 149 -154 149 C-154.81706167 145.9595402 -155.6278202 142.91743317 -156.4375 139.875 C-156.66759766 139.0190625 -156.89769531 138.163125 -157.13476562 137.28125 C-157.35712891 136.44335938 -157.57949219 135.60546875 -157.80859375 134.7421875 C-158.01282959 133.9776123 -158.21706543 133.21303711 -158.42749023 132.42529297 C-164.92081739 104.9179531 -158.29325991 74.05150579 -143.85498047 50.10058594 C-133.97425063 34.68845961 -116.56570604 12.79441034 -98.1796875 8.3125 C-97.46039062 8.209375 -96.74109375 8.10625 -96 8 C-96 7.34 -96 6.68 -96 6 C-92.91190305 4.23537317 -91.76687864 4 -88 4 C-88 3.34 -88 2.68 -88 2 C-87.28972656 1.79503906 -86.57945312 1.59007812 -85.84765625 1.37890625 C-84.46900391 0.97478516 -84.46900391 0.97478516 -83.0625 0.5625 C-82.14597656 0.29566406 -81.22945312 0.02882813 -80.28515625 -0.24609375 C-78.0597507 -0.79026051 -78.0597507 -0.79026051 -77 -2 C-74.50191902 -2.54719869 -72.01455243 -3.04157077 -69.5 -3.5 C-68.81679688 -3.63019531 -68.13359375 -3.76039063 -67.4296875 -3.89453125 C-45.25678746 -8.00523744 -21.04477631 -8.72733852 0 0 Z " fill="#F8B652" transform="translate(842,348)"/>
<path d="M0 0 C4.48861886 -0.48556129 6.44432152 -0.39779197 10.17578125 2.2734375 C11.23862603 3.28952713 12.28361787 4.32453404 13.3125 5.375 C14.15107544 6.18940552 14.15107544 6.18940552 15.0065918 7.02026367 C16.68943781 8.66279625 18.34707224 10.32741853 20 12 C20.9178125 12.91652344 21.835625 13.83304688 22.78125 14.77734375 C24.43818449 16.43683523 26.09071408 18.10073938 27.73828125 19.76953125 C30.36901736 22.36391867 33.13046515 24.75668795 35.9375 27.15625 C38.38924689 29.34796313 40.68885573 31.66067104 43 34 C45.83489999 36.86926241 48.67120659 39.64486711 51.75 42.25 C56.37565961 46.19873381 60.58073972 50.55527047 64.85522461 54.87475586 C67.92414174 57.96351245 71.00181854 60.97951206 74.3125 63.8125 C90.08545642 77.34671421 90.08545642 77.34671421 91.37109375 88.10546875 C91.72191084 97.17355891 89.89410397 104.58284583 84.3125 111.8125 C80.81796275 115.58268777 76.57889371 117.77715523 72 120 C71.08154297 120.55107422 71.08154297 120.55107422 70.14453125 121.11328125 C64.58366702 123.41258213 57.09074587 122.80588337 51.36328125 121.3125 C41.47545958 117.17100401 33.99795282 109.32555518 26.31640625 102.1015625 C23.89784327 99.82947682 21.45137882 97.60445287 18.9375 95.4375 C15.38247798 92.37177133 11.94134254 89.19184277 8.5 86 C4.3713146 82.17200976 0.21513571 78.39141217 -4.04296875 74.70703125 C-7.25792208 71.90277056 -10.41199345 69.03098773 -13.578125 66.171875 C-15.61801202 64.34255696 -17.67603782 62.54034342 -19.75 60.75 C-20.37261719 60.19828125 -20.99523437 59.6465625 -21.63671875 59.078125 C-22.98933517 57.88871684 -24.3482822 56.7062324 -25.72509766 55.54492188 C-27.68954225 53.88381431 -29.6262586 52.19385053 -31.5625 50.5 C-32.20735352 49.96600586 -32.85220703 49.43201172 -33.51660156 48.88183594 C-34.11053711 48.35364258 -34.70447266 47.82544922 -35.31640625 47.28125 C-36.12766968 46.58612305 -36.12766968 46.58612305 -36.95532227 45.87695312 C-38 44 -38 44 -38.07080078 40.73681641 C-36.65500186 35.79604616 -34.20202226 33.42020144 -30.55078125 29.9296875 C-29.57542671 28.96350998 -29.57542671 28.96350998 -28.58036804 27.97781372 C-26.50476054 25.92905769 -24.40900025 23.90234779 -22.3125 21.875 C-20.92120635 20.50524541 -19.53121777 19.13416387 -18.14257812 17.76171875 C-7.91124835 7.69770258 -7.91124835 7.69770258 -3.61791992 4.19970703 C-0.96953992 2.26998695 -0.96953992 2.26998695 0 0 Z " fill="#284264" transform="translate(950,574)"/>
<path d="M0 0 C0.43868408 0.76143311 0.87736816 1.52286621 1.3293457 2.30737305 C2.96717549 5.14969964 4.60540352 7.99179592 6.24389648 10.83374023 C6.95108596 12.06053706 7.65811957 13.28742375 8.36499023 14.5144043 C9.38483736 16.28458291 10.40525657 18.05443069 11.42578125 19.82421875 C12.34484253 21.41882935 12.34484253 21.41882935 13.2824707 23.0456543 C14.89013143 25.95573223 14.89013143 25.95573223 16.72216797 28.24365234 C18.70908773 32.52953773 18.20171935 36.62495934 18.01953125 41.27734375 C17.98817625 43.33914435 17.96029568 45.40100015 17.93554688 47.46289062 C17.88448891 50.69077997 17.81353277 53.91228857 17.68139648 57.13793945 C16.82722099 70.64460811 16.82722099 70.64460811 22.16162109 82.55517578 C25.48952003 86.08691895 29.16742316 89.03577652 33 92 C35.38819552 96.77639105 34.31224877 104.00191543 34.35009766 109.31201172 C34.36666578 111.01722859 34.39396747 112.72237578 34.43212891 114.42724609 C34.48689057 116.88675926 34.50876729 119.3446469 34.5234375 121.8046875 C34.54610687 122.5652243 34.56877625 123.32576111 34.59213257 124.10934448 C34.57683024 127.94287636 34.38640594 129.60541893 31.6574707 132.39208984 C30.78050537 132.9227002 29.90354004 133.45331055 29 134 C27.99582031 134.63421875 26.99164062 135.2684375 25.95703125 135.921875 C24.91933594 136.52515625 23.88164063 137.1284375 22.8125 137.75 C21.76707031 138.36359375 20.72164062 138.9771875 19.64453125 139.609375 C17 141 17 141 15 141 C13.51109835 156.64825166 13.51109835 156.64825166 17.35693359 171.34130859 C20.96706965 175.2525507 25.34355823 177.53075545 30 180 C32.17602539 181.5847168 32.17602539 181.5847168 34 184 C34.42227355 186.94521726 34.60837313 189.51056916 34.6015625 192.45703125 C34.61013275 193.27821945 34.618703 194.09940765 34.62753296 194.94548035 C34.63900349 196.68114542 34.64003169 198.41690663 34.63134766 200.15258789 C34.62504374 202.79417327 34.67188146 205.43123716 34.72265625 208.07226562 C34.72720464 209.76301522 34.7286081 211.45377678 34.7265625 213.14453125 C34.74498199 213.92705765 34.76340149 214.70958405 34.78237915 215.51582336 C34.69263909 220.89946515 33.29141368 223.64027554 29.57572937 227.52449036 C27.19287403 229.75579105 24.7482842 231.85019389 22.1875 233.875 C21.23230469 234.63554688 20.27710938 235.39609375 19.29296875 236.1796875 C18.15794922 237.08074219 18.15794922 237.08074219 17 238 C15.34400286 239.65599714 15.8498722 241.62025289 15.82641602 243.89941406 C15.80618126 245.46674286 15.80618126 245.46674286 15.78553772 247.06573486 C15.76988014 248.77343048 15.76988014 248.77343048 15.75390625 250.515625 C15.72096079 252.90495148 15.68774927 255.29427431 15.65429688 257.68359375 C15.60690076 261.46693332 15.56249731 265.2502588 15.52319336 269.03369141 C15.48346813 272.67366464 15.43191351 276.31332437 15.37890625 279.953125 C15.3704921 281.08349182 15.36207794 282.21385864 15.35340881 283.378479 C15.32844582 284.96472076 15.32844582 284.96472076 15.30297852 286.58300781 C15.28751732 287.97413788 15.28751732 287.97413788 15.27174377 289.39337158 C14.96958815 292.29171737 14.32544307 294.40660862 13 297 C10.08810249 298.94126501 9.16134955 299.29877111 5.8671875 299.6328125 C4.65675781 299.75849609 4.65675781 299.75849609 3.421875 299.88671875 C2.58140625 299.96535156 1.7409375 300.04398438 0.875 300.125 C-0.35089844 300.25455078 -0.35089844 300.25455078 -1.6015625 300.38671875 C-7.0922961 300.93405454 -12.48298015 301.0777045 -18 301 C-17.97679687 301.68964844 -17.95359375 302.37929688 -17.9296875 303.08984375 C-17.69350984 315.38795176 -17.69350984 315.38795176 -20 321 C-23.06142882 323.04095254 -23.69741496 323.25288947 -27.1484375 323.2746582 C-27.97939941 323.28419022 -28.81036133 323.29372223 -29.66650391 323.30354309 C-30.56030762 323.30263168 -31.45411133 323.30172028 -32.375 323.30078125 C-33.75631104 323.30720894 -33.75631104 323.30720894 -35.16552734 323.31376648 C-37.11229632 323.31950889 -39.05908676 323.3200107 -41.00585938 323.31567383 C-43.98865207 323.31251203 -46.97045483 323.33598035 -49.953125 323.36132812 C-51.84374875 323.36360089 -53.73437516 323.36430472 -55.625 323.36328125 C-56.51880371 323.372491 -57.41260742 323.38170074 -58.33349609 323.39118958 C-59.57993896 323.38184639 -59.57993896 323.38184639 -60.8515625 323.37231445 C-61.58197754 323.37294388 -62.31239258 323.3735733 -63.06494141 323.3742218 C-65.55495818 322.8926764 -66.46465611 321.98207624 -68 320 C-68 319.34 -68 318.68 -68 318 C-68.99 317.67 -69.98 317.34 -71 317 C-71 316.34 -71 315.68 -71 315 C-71.66 315 -72.32 315 -73 315 C-73 314.34 -73 313.68 -73 313 C-58.48 313 -43.96 313 -29 313 C-28.67 307.39 -28.34 301.78 -28 296 C-22.37416885 290.37416885 -22.37416885 290.37416885 -17.91015625 290.07421875 C-16.96076172 290.00009766 -16.01136719 289.92597656 -15.03320312 289.84960938 C-14.05287109 289.79611328 -13.07253906 289.74261719 -12.0625 289.6875 C-11.08603516 289.61466797 -10.10957031 289.54183594 -9.10351562 289.46679688 C-4.3917989 289.13138653 0.27539879 288.97109412 5 289 C4.97557327 288.33316193 4.95114655 287.66632385 4.92597961 286.97927856 C4.68156811 280.00377636 4.51630142 273.02949926 4.39575195 266.05078125 C4.34061966 263.45099447 4.26568892 260.85154591 4.17016602 258.25292969 C3.35345327 235.45485191 3.35345327 235.45485191 7.28662109 230.18652344 C10.07278689 227.64162704 12.68061325 225.77811971 16 224 C18.79789312 222.43789919 19.83668653 221.57182094 22 219 C22.88155539 214.60932069 23.07289172 210.33075405 23.05688477 205.87255859 C23.06246302 203.76397894 23.15829907 201.67226936 23.25976562 199.56640625 C23.37790699 194.01779618 23.30699982 189.58611998 19.65185547 185.15039062 C16.86672025 182.86462346 14.04320518 180.9232287 11 179 C6.18225151 175.36450301 6.18225151 175.36450301 5 173 C4.71591158 167.75623118 4.68629749 162.51147957 4.64990234 157.26074219 C4.63333334 155.50702655 4.60603056 153.75337871 4.56787109 152 C4.51312049 149.4709981 4.49123409 146.94357708 4.4765625 144.4140625 C4.44255844 143.24044662 4.44255844 143.24044662 4.40786743 142.04312134 C4.42293103 138.16357855 4.58721447 136.42392794 7.3425293 133.59423828 C8.21949463 133.06813965 9.09645996 132.54204102 10 132 C11.00417969 131.36578125 12.00835938 130.7315625 13.04296875 130.078125 C14.08066406 129.47484375 15.11835937 128.8715625 16.1875 128.25 C17.23292969 127.63640625 18.27835938 127.0228125 19.35546875 126.390625 C22 125 22 125 24 125 C24.03548446 120.64439516 23.99336603 116.29281574 23.9375 111.9375 C23.94845703 110.70837891 23.95941406 109.47925781 23.97070312 108.21289062 C23.91730647 100.30765632 23.91730647 100.30765632 19.71484375 93.9609375 C18.48702424 92.96097371 17.24942765 91.97283034 16 91 C14.50786389 89.25755441 13.04366459 87.49026942 11.625 85.6875 C10.95726562 84.84574219 10.28953125 84.00398438 9.6015625 83.13671875 C7.3218509 80.09524986 6.87999441 78.50924085 6.92163086 74.77246094 C6.92750717 73.89684509 6.93338348 73.02122925 6.93943787 72.11907959 C6.94782181 71.16712708 6.95620575 70.21517456 6.96484375 69.234375 C6.96112542 67.20832827 6.95519091 65.18228464 6.94726562 63.15625 C6.9367842 59.96989797 6.93706482 56.78576807 6.97583008 53.59960938 C7.12817021 39.61500449 6.17240332 30.53176888 -2 19 C-2 18.34 -2 17.68 -2 17 C-5.37108077 20.24618985 -5.37108077 20.24618985 -8.36328125 23.83203125 C-12.38612781 29.10227209 -17.03894478 31.91906451 -22.86743164 34.84326172 C-29.45738769 38.15324087 -35.61686747 42.03764034 -41.83203125 45.99609375 C-45 48 -45 48 -47 49 C-47.02759148 49.90415901 -47.02759148 49.90415901 -47.05574036 50.82658386 C-47.25011082 57.10516737 -47.46419636 63.38285947 -47.68969727 69.66040039 C-47.77124814 72.00267782 -47.84778539 74.34513543 -47.91918945 76.68774414 C-48.02275238 80.05675327 -48.14438294 83.42470089 -48.26953125 86.79296875 C-48.3119268 88.36198189 -48.3119268 88.36198189 -48.35517883 89.96269226 C-48.72882383 99.16554918 -48.72882383 99.16554918 -52 103 C-55.59966476 105.39977651 -58.70038791 105.63775085 -62.88671875 106.0703125 C-63.66255814 106.15626678 -64.43839752 106.24222107 -65.23774719 106.33078003 C-66.88064865 106.51105135 -68.52399434 106.68731257 -70.16772461 106.85986328 C-72.66178263 107.12229396 -75.15410067 107.39794499 -77.64648438 107.67578125 C-79.24731002 107.84974983 -80.84821927 108.02295103 -82.44921875 108.1953125 C-83.18597336 108.27653351 -83.92272797 108.35775452 -84.68180847 108.44143677 C-89.48029525 108.93872206 -94.17557594 109.07001278 -99 109 C-98.98428955 109.66008057 -98.9685791 110.32016113 -98.95239258 111.00024414 C-98.88963312 114.02090727 -98.85088017 117.0414327 -98.8125 120.0625 C-98.78736328 121.10083984 -98.76222656 122.13917969 -98.73632812 123.20898438 C-98.67936561 129.19004889 -98.69621155 133.89540442 -102 139 C-106.36866869 141.26664259 -111.02534212 141.39943452 -115.875 141.625 C-116.56335938 141.66367187 -117.25171875 141.70234375 -117.9609375 141.7421875 C-119.64023246 141.83548166 -121.32007767 141.91878238 -123 142 C-123.495 137.05 -123.495 137.05 -124 132 C-114.5 130 -114.5 130 -110 130 C-109.97494385 129.09644775 -109.9498877 128.19289551 -109.92407227 127.26196289 C-109.82912683 123.9203572 -109.72988379 120.57893748 -109.62768555 117.23754883 C-109.5842837 115.7893576 -109.54261256 114.34111346 -109.50268555 112.89282227 C-109.44510938 110.81510441 -109.38137972 108.73765427 -109.31640625 106.66015625 C-109.27974854 105.40855713 -109.24309082 104.15695801 -109.20532227 102.86743164 C-109 100 -109 100 -108 99 C-105.74420582 98.63901226 -103.47870512 98.33845211 -101.2109375 98.0625 C-100.51545807 97.97750244 -99.81997864 97.89250488 -99.10342407 97.80493164 C-97.61901013 97.62466911 -96.13432881 97.44659732 -94.64941406 97.27050781 C-92.43214708 97.0067968 -90.21607446 96.73446554 -88 96.4609375 C-78.67669944 95.32932062 -69.37801791 94.52128679 -60 94 C-59.99857498 93.38247864 -59.99714996 92.76495728 -59.99568176 92.12872314 C-59.97600343 85.70450354 -59.92176996 79.2812365 -59.84741211 72.85742188 C-59.82420735 70.45970492 -59.80983063 68.06188568 -59.80444336 65.6640625 C-59.79517235 62.21809968 -59.75421934 58.77375129 -59.70703125 55.328125 C-59.7109639 54.25508118 -59.71489655 53.18203735 -59.71894836 52.07647705 C-59.57330226 44.6564036 -59.57330226 44.6564036 -56.83569336 41.52197266 C-55.43202515 40.76859619 -55.43202515 40.76859619 -54 40 C-53.0419043 39.39687988 -52.08380859 38.79375977 -51.09667969 38.17236328 C-50.04899414 37.56118652 -49.00130859 36.95000977 -47.921875 36.3203125 C-47.35100159 35.98506561 -46.78012817 35.64981873 -46.19195557 35.30441284 C-44.38013058 34.24086706 -42.56537349 33.18247563 -40.75 32.125 C-25.90832234 24.35944491 -25.90832234 24.35944491 -13.9375 13.125 C-4.01420455 0 -4.01420455 0 0 0 Z " fill="#A8A7A7" transform="translate(1101,298)"/>
<path d="M0 0 C1.24008316 -0.00241196 2.48016632 -0.00482391 3.75782776 -0.00730896 C7.04515911 -0.00608107 10.33128644 0.01892184 13.6184082 0.0524292 C15.62584788 0.06638499 17.63243976 0.06283099 19.63989258 0.05249023 C23.51031861 0.03367517 27.3795941 0.04316862 31.25 0.0625 C32.4418541 0.05754013 33.63370819 0.05258026 34.86167908 0.04747009 C41.50266721 0.14126304 45.86173488 0.52870703 51.19140625 4.62890625 C54.19140625 8.62890625 54.19140625 8.62890625 54.19140625 28.62890625 C29.11140625 28.62890625 4.03140625 28.62890625 -21.80859375 28.62890625 C-21.80859375 9.11433123 -21.80859375 9.11433123 -16.42163086 2.85571289 C-11.69385432 -0.84592031 -5.71733709 -0.06349194 0 0 Z " fill="#284162" transform="translate(552.80859375,254.37109375)"/>
<path d="M0 0 C0.66 0.33 1.32 0.66 2 1 C-9.6819927 7.13467773 -21.79632968 13.19808734 -35 15 C-34.67 13.68 -34.34 12.36 -34 11 C-34.55171875 11.16371094 -35.1034375 11.32742188 -35.671875 11.49609375 C-38.26614007 12.05760414 -40.59835411 12.09739008 -43.25 12.0625 C-44.14203125 12.05347656 -45.0340625 12.04445313 -45.953125 12.03515625 C-46.62859375 12.02355469 -47.3040625 12.01195312 -48 12 C-44.98000941 10.30773749 -42.37539866 9.59416612 -38.95703125 9.10546875 C-37.97307373 8.95698486 -36.98911621 8.80850098 -35.9753418 8.65551758 C-34.931604 8.50107178 -33.88786621 8.34662598 -32.8125 8.1875 C-21.47372408 6.41707306 -10.86792639 3.62264213 0 0 Z " fill="#F48A2D" transform="translate(865,636)"/>
<path d="M0 0 C2.2293615 -0.0021847 4.45822583 -0.02037699 6.6875 -0.03930664 C13.99218843 -0.06717311 20.78761156 0.16370825 27.8671875 2.18530273 C26.2421875 3.31030273 26.2421875 3.31030273 23.8671875 4.18530273 C21.85200445 3.56604371 19.85319412 2.89256659 17.8671875 2.18530273 C14.37324123 1.89660833 14.37324123 1.89660833 10.67578125 1.95483398 C10.00805191 1.95529221 9.34032257 1.95575043 8.65235901 1.95622253 C7.2497478 1.95922594 5.84713935 1.96705443 4.44458008 1.97949219 C2.3073332 1.9977801 0.17052025 2.00000127 -1.96679688 1.99975586 C-8.97632711 1.89003964 -8.97632711 1.89003964 -15.88647461 2.82080078 C-18.1328125 3.18530273 -18.1328125 3.18530273 -21.1328125 1.18530273 C-14.08512539 0.04518553 -7.12620276 -0.00078138 0 0 Z " fill="#6FB5D8" transform="translate(800.1328125,295.814697265625)"/>
<path d="M0 0 C2.57340506 3.8601076 1.90449965 5.13084772 1.125 9.625 C0.18740585 15.56679048 -0.20413479 21.3596034 -0.1875 27.375 C-0.1879834 28.11830566 -0.1884668 28.86161133 -0.18896484 29.62744141 C-0.45811504 33.10527394 -0.45811504 33.10527394 1 36 C1.14115161 38.67058851 1.04247107 41.32432238 1 44 C-1.37214752 42.18962531 -1.95833305 41.30267966 -2.37231445 38.29541016 C-2.3693335 37.22081543 -2.36635254 36.1462207 -2.36328125 35.0390625 C-2.36263672 33.84410156 -2.36199219 32.64914062 -2.36132812 31.41796875 C-2.34521484 30.16628906 -2.32910156 28.91460937 -2.3125 27.625 C-2.31733398 25.80548828 -2.31733398 25.80548828 -2.32226562 23.94921875 C-2.2744483 15.80288562 -1.46664722 8.0107314 0 0 Z " fill="#F8C979" transform="translate(606,447)"/>
<path d="M0 0 C0 0.33 0 0.66 0 1 C-6.32476024 2.65129208 -12.51863004 4.1104002 -19 5 C-21.33498858 5.66084583 -23.66816393 6.32811503 -26 7 C-29.3240529 7.71647475 -32.65892666 8.36808673 -36 9 C-33.7379136 6.7379136 -32.45995462 6.38463822 -29.421875 5.52734375 C-28.50792969 5.26759766 -27.59398437 5.00785156 -26.65234375 4.74023438 C-25.69457031 4.47533203 -24.73679687 4.21042969 -23.75 3.9375 C-22.80769531 3.66873047 -21.86539063 3.39996094 -20.89453125 3.12304688 C-13.81201988 1.13140097 -7.40010511 -0.1480021 0 0 Z " fill="#75BADB" transform="translate(779,298)"/>
<path d="M0 0 C0.33 0 0.66 0 1 0 C1.01981934 0.67466309 1.03963867 1.34932617 1.06005859 2.04443359 C1.1563811 5.15495861 1.2656181 8.26490789 1.375 11.375 C1.4059375 12.43589844 1.436875 13.49679687 1.46875 14.58984375 C1.68729494 20.52698128 2.28351633 26.09204191 3.56787109 31.89208984 C4.33567393 35.63740605 4.12268714 39.19669858 4 43 C-0.93146059 33.99781932 -0.25921445 23.27018007 -0.125 13.3125 C-0.11597656 12.02666016 -0.10695313 10.74082031 -0.09765625 9.41601562 C-0.0743189 6.27714268 -0.04158033 3.13867524 0 0 Z " fill="#779DBA" transform="translate(637,447)"/>
<path d="M0 0 C0.33 0.66 0.66 1.32 1 2 C-0.01817731 4.22801153 -1.08814178 6.34870479 -2.25 8.5 C-5.22377477 14.1885125 -7.48424925 19.73489689 -9 26 C-9.66 25.34 -10.32 24.68 -11 24 C-11.66 24.33 -12.32 24.66 -13 25 C-11.42407398 19.42572455 -8.77505 14.6923442 -5.9375 9.6875 C-5.47794922 8.86443359 -5.01839844 8.04136719 -4.54492188 7.19335938 C-1.15472274 1.15472274 -1.15472274 1.15472274 0 0 Z " fill="#F9C674" transform="translate(633,378)"/>
<path d="M0 0 C3.31242312 -0.0588996 6.62470851 -0.09389398 9.9375 -0.125 C11.32678711 -0.15013672 11.32678711 -0.15013672 12.74414062 -0.17578125 C18.81872962 -0.21840994 24.11835079 0.46775498 30 2 C30 2.33 30 2.66 30 3 C20.43 2.67 10.86 2.34 1 2 C0.67 1.34 0.34 0.68 0 0 Z " fill="#4E99C3" transform="translate(789,321)"/>
<path d="M0 0 C14.19 0 28.38 0 43 0 C43 0.33 43 0.66 43 1 C41.82904785 1.01981934 40.6580957 1.03963867 39.45166016 1.06005859 C35.11663926 1.13600081 30.78195905 1.2247352 26.44726562 1.31738281 C24.56940424 1.35571977 22.69146824 1.39056427 20.81347656 1.421875 C18.11756679 1.46742363 15.42217288 1.52543375 12.7265625 1.5859375 C11.46243027 1.60326431 11.46243027 1.60326431 10.17276001 1.62094116 C5.60979043 1.54193181 5.60979043 1.54193181 2 4 C2 3.34 2 2.68 2 2 C1.34 2 0.68 2 0 2 C0 1.34 0 0.68 0 0 Z " fill="#B6B6B6" transform="translate(1028,611)"/>
<path d="M0 0 C0.66 0.33 1.32 0.66 2 1 C-1.96 5.29 -5.92 9.58 -10 14 C-10 9.88181592 -8.33436007 8.84145243 -5.5625 5.875 C-4.73878906 4.98554688 -3.91507812 4.09609375 -3.06640625 3.1796875 C-1 1 -1 1 0 0 Z " fill="#3D9AC7" transform="translate(476,309)"/>
<path d="M0 0 C-1.5529276 0.87144869 -3.11785436 1.72153657 -4.6875 2.5625 C-5.55761719 3.03816406 -6.42773438 3.51382813 -7.32421875 4.00390625 C-10.38328753 5.14268368 -11.91863039 4.92718689 -15 4 C-12.18438333 2.52790818 -9.38026161 1.34273182 -6.375 0.3125 C-5.59898437 0.04050781 -4.82296875 -0.23148438 -4.0234375 -0.51171875 C-2 -1 -2 -1 0 0 Z " fill="#F99C4D" transform="translate(867,637)"/>
<path d="M0 0 C0 0.33 0 0.66 0 1 C-1.93475671 1.53093324 -3.87293155 2.04942317 -5.8125 2.5625 C-7.43091797 2.99755859 -7.43091797 2.99755859 -9.08203125 3.44140625 C-12 4 -12 4 -15 3 C-11.07677056 -0.92322944 -5.25785342 -0.10515707 0 0 Z " fill="#67B1D5" transform="translate(779,298)"/>
<path d="M0 0 C6.0018137 -0.21824777 11.19233704 0.4943096 17 2 C15.17578125 3.05078125 15.17578125 3.05078125 13 4 C10.1875 3.1875 10.1875 3.1875 7 2 C4.67305036 1.62468554 2.34023315 1.28082798 0 1 C0 0.67 0 0.34 0 0 Z " fill="#B0D5E8" transform="translate(811,296)"/>
<path d="M0 0 C3 3 3 3 3.125 5.5625 C3.08375 6.366875 3.0425 7.17125 3 8 C3.33 8.66 3.66 9.32 4 10 C3.01 9.67 2.02 9.34 1 9 C0.67 6.03 0.34 3.06 0 0 Z " fill="#F8BF63" transform="translate(610,516)"/>
</svg>
